<svg xmlns="http://www.w3.org/2000/svg" width="512" height="512" enable-background="new 0 0 64 64" viewBox="0 0 64 64"><path d="M6 27h26c.55 0 1-.45 1-1V6c0-.55-.45-1-1-1H6c-.55 0-1 .45-1 1v20c0 .55.45 1 1 1zM7 7h24v18H7zM17 36v-6c0-.55-.45-1-1-1H6c-.55 0-1 .45-1 1v6c0 .55.45 1 1 1h10c.55 0 1-.45 1-1zm-2-1H7v-4h8zM32 29H22c-.55 0-1 .45-1 1v6c0 .55.45 1 1 1h10c.55 0 1-.45 1-1v-6c0-.55-.45-1-1-1zm-1 6h-8v-4h8zM63 14c0-7.17-4.5-13-10-13S43 6.83 43 14c0 5.32 2.47 9.9 6 11.9V30c0 .55.45 1 1 1v22h-3v-1c0-1.65-1.35-3-3-3H22v-4h2c.55 0 1-.45 1-1v-3h9c1.65 0 3-1.35 3-3V4c0-1.65-1.35-3-3-3H4C2.35 1 1 2.35 1 4v34c0 1.65 1.35 3 3 3h9v3c0 .55.45 1 1 1h2v4H4c-1.65 0-3 1.35-3 3v8c0 1.65 1.35 3 3 3h40c1.65 0 3-1.35 3-3v-1h4c2.76 0 5-2.24 5-5V31c.55 0 1-.45 1-1v-4.1c3.53-2 6-6.58 6-11.9zM3 38V4c0-.55.45-1 1-1h30c.55 0 1 .45 1 1v34c0 .55-.45 1-1 1H4c-.55 0-1-.45-1-1zm12 3h8v2h-8zm3 4h2v4h-2zm27 15c0 .55-.45 1-1 1H4c-.55 0-1-.45-1-1v-8c0-.55.45-1 1-1h40c.55 0 1 .45 1 1zm9-6c0 1.65-1.35 3-3 3h-4v-2h3c1.1 0 2-.9 2-2V31h2zm1-25h-4v-2.26c.65.17 1.3.26 2 .26s1.35-.1 2-.26zm-2-4c-4.4 0-8-4.93-8-11s3.6-11 8-11 8 4.93 8 11-3.6 11-8 11zM7 55h34v2H7zM57 14c0 3.8-1.83 7-4 7v2c3.36 0 6-3.95 6-9zM24.1 9h-.27c-1.77 0-3.46.58-4.83 1.67C17.63 9.56 15.94 9 14.17 9h-.26C11.2 9 9 11.2 9 13.9c0 1.65.82 3.18 2.2 4.1l7.25 4.83c.16.1.36.17.55.17s.4-.06.55-.17L26.8 18c1.38-.92 2.2-2.45 2.2-4.1 0-2.7-2.2-4.9-4.9-4.9zm1.6 7.33L19 20.8l-6.7-4.47c-.82-.54-1.3-1.45-1.3-2.42 0-1.6 1.3-2.9 2.9-2.9h.27c1.56 0 3.02.6 4.12 1.7.38.4 1.02.4 1.4 0 1.1-1.1 2.57-1.7 4.13-1.7h.26c1.6 0 2.9 1.3 2.9 2.9 0 .98-.48 1.9-1.3 2.43z"/></svg>