<svg xmlns="http://www.w3.org/2000/svg" viewBox="0 0 512 512"><path d="M358.42 0H51.22a25.63 25.63 0 00-25.6 25.6v51.2a8.53 8.53 0 008.53 8.53H375.5a8.53 8.53 0 008.53-8.53V25.6A25.63 25.63 0 00358.42 0zm8.53 68.27H42.7V25.6a8.54 8.54 0 018.53-8.53h307.2a8.54 8.54 0 018.53 8.53v42.67z"/><path d="M358.42 68.27H51.22a8.53 8.53 0 00-8.53 8.53V128a8.53 8.53 0 008.53 8.53h307.2a8.53 8.53 0 008.53-8.53V76.8a8.53 8.53 0 00-8.53-8.53zm-8.53 51.2H59.75V85.33h290.13v34.14zM93.89 264.53a8.53 8.53 0 00-8.54 8.54v85.33a8.53 8.53 0 1017.07 0v-85.33a8.53 8.53 0 00-8.53-8.54z"/><path d="M136.55 307.2H51.22a8.53 8.53 0 100 17.07h85.33a8.53 8.53 0 100-17.07zM366.95 264.53H179.22a8.53 8.53 0 100 17.07h187.73a8.53 8.53 0 100-17.07zM316.26 307.2H179.22a8.53 8.53 0 100 17.07h137.04a8.53 8.53 0 100-17.07zM298.69 349.87H179.22a8.53 8.53 0 100 17.06h119.47a8.53 8.53 0 100-17.06zM449.53 352.37a8.52 8.52 0 00-12.07 0l-32.18 32.19a8.52 8.52 0 1012.06 12.06l32.19-32.19a8.53 8.53 0 000-12.06z"/><path d="M384.02 375.47H264.55a68.35 68.35 0 00-68.26 68.26A68.35 68.35 0 00264.55 512h119.47a68.35 68.35 0 0068.27-68.27 68.35 68.35 0 00-68.27-68.26zm0 119.46H264.55a51.26 51.26 0 01-51.2-51.2 51.26 51.26 0 0151.2-51.2h119.47a51.26 51.26 0 0151.2 51.2 51.26 51.26 0 01-51.2 51.2z"/><path d="M324.29 375.47a8.53 8.53 0 00-8.54 8.53v119.47a8.53 8.53 0 1017.07 0V384a8.53 8.53 0 00-8.53-8.53z"/><path d="M491.95 394.79l-84.83-84.83c-26.27-26.27-70.64-26.27-96.9 0a68.62 68.62 0 00-13.45 77.68 8.52 8.52 0 007.71 4.9h79.54a51.26 51.26 0 0151.2 51.2c0 18.14-9.8 35.1-25.56 44.26a8.53 8.53 0 00.08 14.8 68.29 68.29 0 0033.73 8.88 68.51 68.51 0 0048.48-20 68.6 68.6 0 000-96.9zm-12.07 84.83a51.5 51.5 0 01-48.8 13.49 68.46 68.46 0 0021.2-49.37 68.35 68.35 0 00-68.26-68.27h-73.83a51.55 51.55 0 0112.1-53.45c19.72-19.72 53.03-19.72 72.76 0l84.83 84.83a51.52 51.52 0 010 72.77z"/><path d="M372.4 130.19l-7.85-8.12a8.54 8.54 0 00-6.13-2.6H51.22c-2.31 0-4.52.94-6.14 2.6l-7.85 8.12A131.6 131.6 0 00.02 222.16v255.7A34.17 34.17 0 0034.15 512h230.4a8.53 8.53 0 100-17.07 51.26 51.26 0 01-51.2-51.2 51.26 51.26 0 0151.2-51.2h39.93a8.55 8.55 0 007.71-12.17A51.55 51.55 0 01322.3 322c19.72-19.72 53.03-19.72 72.76 0a8.53 8.53 0 0014.57-6.03v-93.82a131.6 131.6 0 00-37.22-91.97zm20.15 168.77c-26.07-14.53-60.47-10.87-82.33 10.99a68.67 68.67 0 00-17.85 65.52h-27.82a68.35 68.35 0 00-68.27 68.26 68.13 68.13 0 0023.16 51.2H34.15a17.08 17.08 0 01-17.06-17.06V222.16c0-30.06 11.5-58.5 32.41-80.11l5.34-5.52H354.8l5.34 5.52a114.67 114.67 0 0132.41 80.1v76.8z"/><path d="M401.09 213.33H8.55a8.53 8.53 0 00-8.53 8.54V409.6a8.53 8.53 0 008.53 8.53h207.02c2.8 0 5.4-1.36 7-3.65a51.26 51.26 0 0141.98-21.95h39.93a8.55 8.55 0 007.71-12.17A51.55 51.55 0 01322.3 322c19.72-19.72 53.03-19.72 72.76 0a8.53 8.53 0 0014.57-6.03v-94.11a8.53 8.53 0 00-8.53-8.54zm-8.54 85.63c-26.07-14.53-60.47-10.87-82.33 10.99a68.67 68.67 0 00-17.85 65.52h-27.82a68.31 68.31 0 00-53.25 25.6H17.1V230.4h375.46v68.56zM119.49 34.13H34.15a8.53 8.53 0 100 17.07h85.34a8.53 8.53 0 100-17.07zM238.95 34.13h-85.33a8.53 8.53 0 100 17.07h85.33a8.53 8.53 0 100-17.07zM375.49 34.13h-102.4a8.53 8.53 0 100 17.07h102.4a8.53 8.53 0 100-17.07z"/></svg>