<svg xmlns="http://www.w3.org/2000/svg" width="504pt" height="504pt" viewBox="0 0 504.31907 504"><path d="M268.57 453.4H235c-4.64 0-8.4 3.76-8.4 8.4 0 4.63 3.76 8.4 8.4 8.4h33.57c4.64 0 8.4-3.77 8.4-8.4 0-4.64-3.76-8.4-8.4-8.4zm0 0M310.54 293.93h-25.18v-25.18c0-9.27-7.52-16.8-16.8-16.8H235c-9.27 0-16.8 7.53-16.8 16.8v25.18h-25.17c-9.27 0-16.78 7.52-16.78 16.8v33.56c0 9.26 7.5 16.78 16.78 16.78h25.18v25.18c0 9.27 7.53 16.78 16.8 16.78h33.57c9.27 0 16.8-7.5 16.8-16.78v-25.18h25.17c9.27 0 16.8-7.52 16.8-16.8v-33.56c0-9.27-7.53-16.8-16.8-16.8zm0 50.36h-33.57c-4.64 0-8.4 3.75-8.4 8.38v33.58H235v-33.58c0-4.63-3.76-8.4-8.4-8.4h-33.57v-33.56h33.58c4.64 0 8.4-3.76 8.4-8.4v-33.57h33.57v33.57c0 4.64 3.76 8.4 8.4 8.4h33.57zm0 0M469.6 365.2l33.48-134.86c3.6-17.3-.76-35.32-11.92-49.04-11.15-13.7-27.9-21.67-45.57-21.66h-42.73V42.14C402.84 18.95 384.07.18 360.9.15H142.67c-11.77 0-23 4.95-30.95 13.64-.38.5-.7 1.02-.97 1.58l-1.34-.63-5.4-2.5c-11.02-5.05-23.7-5-34.7.15-11.05 5.17-19.34 14.85-22.74 26.57L3.06 190.83c-8.76 29.7 1.7 61.73 26.3 80.54l-25.04 51.1c-.5 1.04-.93 2.1-1.3 3.2-5.97 17.9-2.97 37.6 8.07 52.93 11.02 15.33 28.75 24.42 47.64 24.44h41.97v58.76c.03 23.16 18.8 41.94 41.97 41.97H360.9c10.43.02 20.5-3.87 28.2-10.9 35.13 20.8 80.47 9.88 102.27-24.67 21.8-34.54 12.15-80.17-21.78-102.93zm-24-188.78c12.56 0 24.47 5.63 32.44 15.35 7.97 9.73 11.16 22.5 8.68 34.84l-32.5 130.85c-5.27-1.95-10.73-3.3-16.3-4.04l32.42-130.5c1.37-7.22-.53-14.68-5.2-20.36-4.77-5.9-11.96-9.35-19.55-9.33h-42.73v-16.78zM353 419.82H117.5V297.7c19.58-4.18 36.7-15.95 47.63-32.74l40.06-63.36h96.95c4.64 0 8.4-3.76 8.4-8.4 0-4.63-3.76-8.38-8.4-8.38H215.8l15.93-25.18h53.63c4.64 0 8.4-3.76 8.4-8.4 0-4.63-3.76-8.4-8.4-8.4H242.3l9.5-15c6.6-10.2 8.5-22.77 5.2-34.47-3.23-11.44-11.23-20.94-21.96-26.06h151.04v298.16c-18.5 12.37-30.6 32.26-33.08 54.37zM74.5 293.9c8.33 3.38 17.2 5.23 26.2 5.44v53.34H58.75c-2.5 0-4.88-1.1-6.47-3.04-1.6-1.93-2.25-4.47-1.78-6.93zM110.04 33.5l17.15 7.87.7.3c4.13 2 5.92 6.92 4 11.1-1.9 4.15-6.8 6.02-11 4.18l-4.63-2.13-3.83-1.76-.14-.06-9.24-4.25zm-18.16 28.6l8.83 4.06v182.84c-2.92-.2-5.78-.95-8.45-2.17L64.4 234.1c-11.17-5.17-16.84-17.77-13.3-29.56zm25.6 11.3c2.25.7 4.57 1.08 6.92 1.12 6.6 0 12.92-2.6 17.6-7.23h27.47c-4.36 12.25 1.32 25.8 13.1 31.3l22.13 10.12-81.4 128.98c-1.57 2.4-3.53 4.5-5.8 6.25zm96.65 2.7l-7 15.24-12.17-5.6-5.38-2.46c-3.54-1.65-5.47-5.54-4.65-9.37.82-3.83 4.2-6.57 8.1-6.62h.05c1.2 0 2.38.27 3.47.76zM402.87 210h42.72c2.5 0 4.9 1.13 6.47 3.1 1.44 1.66 2.13 3.85 1.9 6.04l-33.25 133.9c-6.1.63-12.1 1.98-17.85 4.05zM142.67 16.95H360.9c13.9 0 25.18 11.27 25.18 25.18v8.4H149.55c.5-10.27-5.3-19.8-14.64-24.08l-8.1-3.72c4.45-3.73 10.07-5.78 15.87-5.78zM19.2 195.45L62.67 43.7c2.05-7.07 7.04-12.9 13.7-16.04 5.75-2.65 12.3-2.97 18.3-.9l-7.9 17.17c-.97.18-1.9.48-2.82.88-3.34 1.54-5.84 4.46-6.86 8L34.97 199.9c-5.9 19.77 3.68 40.86 22.43 49.44l27.85 12.77c18.8 8.66 41.1 2.08 52.18-15.38l83.94-132.93c2-3.08 2.58-6.9 1.54-10.42-.32-1.08-.8-2.12-1.4-3.07l7.8-17.02c5.63 3.18 9.8 8.43 11.58 14.64 1.98 7.1.8 14.7-3.22 20.85l-86.64 137.1c-15.53 24.26-46.54 33.4-72.75 21.45l-27.84-12.8C24.3 252.48 11 223.05 19.2 195.45zm39.54 190.8c-13.53 0-26.22-6.53-34.1-17.52-7.87-11-9.96-25.1-5.62-37.92l24.83-50.76 15.3 7L35 336.15c-.23.48-.42 1-.56 1.5-2 7.34-.58 15.2 3.88 21.36 4.68 6.6 12.3 10.52 20.42 10.47h41.97v16.8zM360.9 487H142.67c-13.9 0-25.18-11.27-25.18-25.18v-25.18H353c1.95 17.34 9.85 33.46 22.36 45.63-4.2 3.05-9.26 4.7-14.46 4.73zm67.15 0c-31.65-.04-57.6-25.14-58.66-56.77.54-1.26.54-2.7 0-3.95 1.08-32.2 27.87-57.5 60.06-56.76 32.2.72 57.8 27.23 57.4 59.43-.38 32.2-26.6 58.1-58.8 58.05zm0 0M428.05 386.26c-23.18 0-41.97 18.8-41.97 41.97 0 23.17 18.8 41.96 41.97 41.96 23.18 0 41.97-18.8 41.97-41.97-.03-23.17-18.8-41.94-41.97-41.97zm0 67.15c-13.9 0-25.18-11.27-25.18-25.17s11.27-25.2 25.18-25.2 25.18 11.3 25.18 25.2-11.27 25.18-25.18 25.18zm0 0M327.33 142.85h-8.4c-4.63 0-8.4 3.76-8.4 8.4 0 4.63 3.77 8.4 8.4 8.4h8.4c4.63 0 8.4-3.77 8.4-8.4 0-4.64-3.77-8.4-8.4-8.4zm0 0"/></svg>