<svg xmlns="http://www.w3.org/2000/svg" viewBox="0 0 480 480"><path d="M56 32h16v16H56zM104 32h16v16h-16zM128 424h16v16h-16zM32 104v32h16v-24h24V96H40a8 8 0 00-8 8z"/><path d="M472 16h-16V8a8 8 0 00-8-8h-24a16 16 0 00-16 16v16a16 16 0 0016 16h24a8 8 0 008-8v-8h8v112a72 72 0 01-144 0V32h8v8a8 8 0 008 8h24a16 16 0 0016-16V16a16 16 0 00-16-16h-24a8 8 0 00-8 8v8h-16a8 8 0 00-8 8v120a88.08 88.08 0 0080 87.6v8.4a71.95 71.95 0 01-112 59.82V24a24 24 0 00-24-24H24A24 24 0 000 24v432a24 24 0 0024 24h224a24 24 0 0024-24V318.29A87.85 87.85 0 00400 240v-8.4a88.08 88.08 0 0080-87.6V24a8 8 0 00-8-8zm-32 16h-16V16h16v16zm-96-16h16v16h-16V16zm-88 269.15A71.64 71.64 0 01240 240v-72a56 56 0 10-112 0v32.8a40 40 0 1016 0V168a40 40 0 0180 0v72a87.89 87.89 0 0032 67.83V384H48v16h208v56a8 8 0 01-8 8H24a8 8 0 01-8-8V80h208V64H16V24a8 8 0 018-8h224a8 8 0 018 8v261.15zM136 216a24 24 0 110 48 24 24 0 010-48z"/><path d="M152 320h16v16h-16zM184 320h32v16h-32zM152 352h64v16h-64z"/></svg>