<svg xmlns="http://www.w3.org/2000/svg" width="1066.667pt" height="1066.667pt" viewBox="-33 -33 1066.6666 1066.6666"><path d="M386.65 535.42c8.1 0 14.65-6.56 14.65-14.65V363.2c0-8.07-6.56-14.63-14.65-14.63h-79.43c-8.1 0-14.65 6.56-14.65 14.64v157.57c0 8.1 6.56 14.65 14.65 14.65zm-64.78-157.56H372v128.27h-50.13zm0 0M458.27 535.42h79.43c8.08 0 14.65-6.56 14.65-14.65V363.2c0-8.07-6.57-14.63-14.65-14.63h-79.43c-8.1 0-14.65 6.56-14.65 14.64v157.57c0 8.1 6.56 14.65 14.65 14.65zm14.65-157.56h50.13v128.27h-50.13zm0 0M183.34 762.27c8.1 0 14.65-6.55 14.65-14.65V590.07c0-8.1-6.57-14.64-14.66-14.64H103.9c-8.08 0-14.64 6.55-14.64 14.64v157.55c0 8.1 6.56 14.65 14.65 14.65zm-64.78-157.55h50.14v128.25h-50.14zm0 0M812.62 762.27h79.43c8.08 0 14.65-6.55 14.65-14.65V590.07c0-8.1-6.57-14.64-14.65-14.64h-79.43c-8.1 0-14.65 6.55-14.65 14.64v157.55c0 8.1 6.56 14.65 14.65 14.65zm14.65-157.55h50.13v128.25h-50.13zm0 0M609.3 535.42h79.44c8.1 0 14.65-6.56 14.65-14.65V363.2c0-8.07-6.57-14.63-14.66-14.63H609.3c-8.08 0-14.64 6.56-14.64 14.64v157.57c0 8.1 6.56 14.65 14.65 14.65zm14.66-157.56h50.13v128.27h-50.14zm0 0M483.33 154.4c0 8.08 6.56 14.64 14.65 14.64 8.1 0 14.65-6.56 14.65-14.65V124.1h30.27c8.1 0 14.65-6.56 14.65-14.65S551 94.82 542.9 94.82h-30.27V64.55c0-8.1-6.56-14.65-14.65-14.65-8.1 0-14.65 6.56-14.65 14.65v30.27h-30.27c-8.1 0-14.65 6.56-14.65 14.65s6.57 14.65 14.66 14.65h30.27zm0 0M983.33 424.4c8.1 0 14.65-6.57 14.65-14.65V357c0-8.07-6.56-14.64-14.65-14.64h-88.87c-8.08 0-14.64 6.57-14.64 14.65 0 8.1 6.56 14.66 14.64 14.66h74.22v23.44c-24.78 0-201 0-211.54 0v-23.44h64.4c8.1 0 14.65-6.56 14.65-14.65 0-8.07-6.56-14.64-14.66-14.64h-64.4V273.7h22.5c8.08 0 14.63-6.56 14.63-14.66V206.3c0-8.08-6.55-14.64-14.64-14.64H648.96V12.63c0-8.1-6.56-14.65-14.65-14.65H361.66c-8.1 0-14.65 6.56-14.65 14.65v179.04H216.33c-8.1 0-14.65 6.55-14.65 14.65v52.72c0 8.1 6.56 14.65 14.65 14.65h22.5v68.66H12.62c-8.1 0-14.65 6.57-14.65 14.65v52.75c0 8.08 6.56 14.64 14.65 14.64h6.5v96.37c0 8.1 6.57 14.65 14.66 14.65s14.63-6.56 14.63-14.65V424.4h190.4v488.9H48.42V593.5c0-8.1-6.55-14.65-14.64-14.65s-14.66 6.56-14.66 14.65v319.8h-6.5c-8.1 0-14.66 6.56-14.66 14.65v55.38c0 8.1 6.56 14.65 14.65 14.65h970.7c8.1 0 14.65-6.56 14.65-14.65v-55.38c0-8.1-6.56-14.65-14.65-14.65h-6.5V424.4zM230.98 220.96h227.66c8.08 0 14.65-6.56 14.65-14.65 0-8.1-6.58-14.65-14.66-14.65H376.3V27.27h243.36v164.4H541.6c-8.1 0-14.65 6.55-14.65 14.65 0 8.1 6.56 14.65 14.65 14.65h223.38v23.42h-534zm-203.7 150.7h211.54v23.43H27.28zm240.84-97.98h459.72v639.6H643.5V681.57c0-8.08-6.57-14.64-14.66-14.64H367.12c-8.08 0-14.65 6.56-14.65 14.64V913.3h-84.35zm113.65 639.6V696.22h101.56V913.3zm130.86-217.08H614.2V913.3H512.62zm456.05 272.46H27.28V942.6h941.4zm-21.15-55.38h-190.4V424.4h190.4v488.9zm0 0"/></svg>