<svg xmlns="http://www.w3.org/2000/svg" width="512" height="512" enable-background="new 0 0 64 64" viewBox="0 0 64 64"><path d="M60 25c-1.65 0-3 1.35-3 3v5H30V5h5v2.18c-1.16.42-2 1.52-2 2.82v4c0 1.3.84 2.4 2 2.82V19h2v-2.18c1.16-.42 2-1.52 2-2.82v-4c0-1.3-.84-2.4-2-2.82V5c.27 0 .52-.1.7-.3l2-2-1.4-1.4L36.6 3H30V1h-2v2h-6.6l-1.7-1.7-1.4 1.4 2 2c.18.2.43.3.7.3h7v28h-3.6L14.2 22.8c-1.17-1.2-3.23-1.2-4.4 0-.6.58-.92 1.37-.92 2.2s.32 1.62.9 2.2l9.8 9.8H7V22c0-1.65-1.35-3-3-3s-3 1.35-3 3v28c0 .55.45 1 1 1h5.43l2.07 3.44C8.57 55.34 8 56.6 8 58c0 2.76 2.24 5 5 5s5-2.24 5-5c0-1.4-.58-2.65-1.5-3.56l.27-.44h30.46l.27.44c-.93.9-1.5 2.17-1.5 3.56 0 2.76 2.24 5 5 5s5-2.24 5-5c0-1.4-.57-2.65-1.5-3.56L56.57 51H62c.55 0 1-.45 1-1V28c0-1.65-1.35-3-3-3zM37 14c0 .55-.45 1-1 1s-1-.45-1-1v-4c0-.55.45-1 1-1s1 .45 1 1zm23 13c.55 0 1 .45 1 1v17h-1v-5c0-.88-.4-1.67-1-2.22V28c0-.55.45-1 1-1zm-48.8-1.2c-.43-.45-.43-1.16 0-1.6.43-.42 1.17-.42 1.6 0l10.5 10.5c.18.2.43.3.7.3h33v2H22.4zM57 39c.55 0 1 .45 1 1v5H6v-5c0-.55.45-1 1-1zM4 21c.55 0 1 .45 1 1v15.78c-.6.55-1 1.34-1 2.22v5H3V22c0-.55.45-1 1-1zm9 40c-1.65 0-3-1.35-3-3s1.35-3 3-3 3 1.35 3 3-1.35 3-3 3zm0-8c-.64 0-1.25.13-1.82.35L9.78 51h6.45l-1.4 2.35c-.57-.22-1.2-.35-1.83-.35zm4.97-1l.6-1h26.86l.6 1zM51 61c-1.65 0-3-1.35-3-3s1.35-3 3-3 3 1.35 3 3-1.35 3-3 3zm1.82-7.64c-.57-.23-1.18-.36-1.82-.36s-1.25.13-1.82.36L47.78 51h6.45zM61 49H3v-2h58z"/><circle cx="13" cy="58" r="2"/><circle cx="51" cy="58" r="2"/><path d="M35 21h2v2h-2zM35 25h2v2h-2zM35 29h2v2h-2zM8 41h8v2H8zM18 41h2v2h-2z"/></svg>