<svg xmlns="http://www.w3.org/2000/svg" width="512" height="512"><path d="M55.76 496h112.48A39.8 39.8 0 0 0 208 456.24v-224.6a55.73 55.73 0 0 0-40-53.4v-18.27a25.12 25.12 0 0 0 24-25.07v-13.8A25.12 25.12 0 0 0 166.9 96H57.1A25.12 25.12 0 0 0 32 121.1v13.8a25.12 25.12 0 0 0 24 25.07v18.28a55.73 55.73 0 0 0-40 53.4v224.6A39.8 39.8 0 0 0 55.76 496zm112.48-16H55.76a23.8 23.8 0 0 1-22.45-16h157.4a23.8 23.8 0 0 1-22.46 16zM48 134.9v-13.8a9.1 9.1 0 0 1 9.1-9.1h109.8a9.1 9.1 0 0 1 9.1 9.1v13.8a9.1 9.1 0 0 1-9.1 9.1H57.1a9.1 9.1 0 0 1-9.1-9.1zM152 160v16H72v-16zM32 231.64A39.7 39.7 0 0 1 71.64 192h80.72A39.7 39.7 0 0 1 192 231.64V272H32zM32 288h160v160H32zM240 256v216a24.03 24.03 0 0 0 24 24h64a24.03 24.03 0 0 0 24-24V256a56 56 0 0 0-18.7-41.75 39.26 39.26 0 0 0 2.7-14.1c.1-3.03 1.35-42.9-.04-56.94-1.1-11-4.8-27.03-8.4-42.53-3.2-13.9-6.53-28.25-7.6-37.6-.4-3.4-.57-7.2-.74-10.88-.34-7.7-.7-15.68-3.12-22.17C312.73 20.98 305.6 16 296 16s-16.73 4.98-20.1 14.03c-2.42 6.5-2.77 14.46-3.12 22.16-.16 3.67-.33 7.47-.72 10.88-1.08 9.34-4.4 23.7-7.62 37.6-3.6 15.5-7.3 31.53-8.4 42.53-1.4 14.06-.13 53.92-.04 56.94a39.28 39.28 0 0 0 2.7 14.1A56 56 0 0 0 240 256zm96 216a8 8 0 0 1-8 8h-64a8 8 0 0 1-8-8v-8h80zm0-24h-80V288h80zm-62.72-224.9a8 8 0 0 0 2.28-10.73A23.56 23.56 0 0 1 272 200c0-.1 0-.17 0-.26 0-.42-1.35-41.7-.04-54.95 1-10 4.6-25.5 8.06-40.52 3.47-14.98 6.75-29.13 7.93-39.36.46-3.97.64-8.06.82-12.02.3-6.46.58-13.15 2.12-17.3 1.05-2.82 2.14-3.6 5.1-3.6s4.05.78 5.1 3.6c1.55 4.15 1.85 10.84 2.14 17.3.17 3.96.35 8.05.8 12.02 1.2 10.23 4.47 24.38 7.94 39.36 3.48 15 7.07 30.53 8.06 40.5 1.3 13.26-.02 54.54-.04 54.96 0 .08 0 .17 0 .26a23.56 23.56 0 0 1-3.56 12.37 8 8 0 0 0 2.3 10.73A40.04 40.04 0 0 1 336 256v16h-80v-16a40.04 40.04 0 0 1 17.28-32.9zM280 400h32a8 8 0 0 0 0-16h-32a8 8 0 0 0 0 16zM280 368h32a8 8 0 0 0 8-8v-32a8 8 0 0 0-8-8h-32a8 8 0 0 0-8 8v32a8 8 0 0 0 8 8zm8-32h16v16h-16zM456 16h-32a40.05 40.05 0 0 0-40 40v416a24.03 24.03 0 0 0 24 24h64a24.03 24.03 0 0 0 24-24V56a40.05 40.05 0 0 0-40-40zm24 456a8 8 0 0 1-8 8h-64a8 8 0 0 1-8-8v-68.7l40-40 40 40zm0-91.3l-34.34-34.36a8 8 0 0 0-11.32 0L400 380.7v-89.4l40-40 40 40zm0-112l-34.34-34.36a8 8 0 0 0-11.32 0L400 268.7V56a24.03 24.03 0 0 1 24-24h32a24.03 24.03 0 0 1 24 24zM416 440a24 24 0 1 0 24-24 24.03 24.03 0 0 0-24 24zm32 0a8 8 0 1 1-8-8 8 8 0 0 1 8 8zM152 344h-16v-16a8 8 0 0 0-8-8H96a8 8 0 0 0-8 8v16H72a8 8 0 0 0-8 8v32a8 8 0 0 0 8 8h16v16a8 8 0 0 0 8 8h32a8 8 0 0 0 8-8v-16h16a8 8 0 0 0 8-8v-32a8 8 0 0 0-8-8zm-8 32h-16a8 8 0 0 0-8 8v16h-16v-16a8 8 0 0 0-8-8H80v-16h16a8 8 0 0 0 8-8v-16h16v16a8 8 0 0 0 8 8h16z"/></svg>