<svg xmlns="http://www.w3.org/2000/svg" width="511pt" height="511pt" viewBox="-55 0 511 511.99795"><path d="M125.32 37.13l-12.6 3.7c-4 1.17-6.27 5.35-5.1 9.33.97 3.28 3.96 5.4 7.2 5.4.7 0 1.42-.1 2.13-.3l12.6-3.72c4-1.17 6.27-5.34 5.1-9.33-1.18-3.97-5.35-6.24-9.33-5.08zm0 0M400.43 119.5c-1.38-2.12-3.75-3.4-6.3-3.4h-8.02c-3.44-32.26-17.1-58.67-40.66-78.57C317.1 13.57 273.28.96 215.24.05c-42.6-.67-76.66 5.4-78.16 5.68-1.95.37-48.1 9.6-67.17 47.45-7.77 15.44-8.3 27.17-1.57 34.87 13.3 15.25 48.92 4.13 56.4 1.57.3-.08.68-.2 1.26-.38 23.37-7.03 46.2-13.38 66.03-18.36 4.02-1.02 6.46-5.1 5.45-9.13-1-4.02-5.1-6.46-9.12-5.45-20.04 5.04-43.1 11.45-66.7 18.55-.6.2-1.02.3-1.2.36-.14.05-.3.1-.45.15-15.56 5.36-35.96 7.84-40.36 2.82-1.68-1.93-1.6-7.74 3.7-18.24 15.7-31.16 56.17-39.37 56.5-39.43 1.33-.24 134.23-23.6 195.9 28.5C355.85 66 367.68 88.53 371 116.1h-17.06c-3.1-22.5-12.65-40.27-29.1-54.17-30.03-25.36-77-18.95-109.74-11.9-4.06.86-6.64 4.86-5.77 8.92.87 4.05 4.87 6.64 8.93 5.76 29.63-6.36 71.9-12.38 96.87 8.7 12.96 10.96 20.73 24.98 23.6 42.7H8c-2.53 0-4.9 1.28-6.28 3.4-1.4 2.13-1.6 4.82-.58 7.14.7 1.57 17.42 38.8 61.24 70.66 3.35 2.44 8.05 1.7 10.5-1.66 2.43-3.36 1.7-8.06-1.67-10.5-26.76-19.47-42.74-41.38-50.5-54h360.8c-2.3 3.7-5.3 8.23-9.06 13.27 0 0 0 0-.02.02-1.14 1.53-2.35 3.08-3.6 4.67-.04.02-.07.06-.1.1-.4.5-.82 1-1.24 1.5-.28.37-.56.7-.86 1.07-.08.1-.16.2-.24.3-3.96 4.72-8.52 9.72-13.75 14.8-22.87 22.24-63.28 50.3-125.94 57.65-3.67.43-6.48 3.45-6.64 7.13v.2c-5.93 1.78-11.84 3.5-17.83 5.25-.1.03-.2.06-.3.1-6.6 1.9-13.06 3.8-19.34 5.7l-.5-11.25c-.17-3.68-2.97-6.7-6.63-7.13-28.23-3.32-54.36-11.07-77.68-23.04-3.7-1.9-8.23-.44-10.12 3.25-1.9 3.7-.44 8.22 3.25 10.1 23.14 11.9 48.83 19.9 76.43 23.8l.4 8.96c-9.44 3.14-18.17 6.44-25.78 10.1-4.27 2.03-13.17 6.3-21.12 13.55-10.42 9.5-15.7 20.8-15.7 33.54 0 22.68 13.48 40.8 37.97 50.97 8.15 3.38 17.5 6.07 29.78 8.52l1.34 30.25c-2.76.3-5.4.58-7.88.84-4.48.47-8.72.9-12.43 1.35l-1.72.2c-22.74 2.6-43.93 7.03-44.93 21.8-.3 4.14 1.1 7.96 3.96 11.04 8.68 9.27 29.47 10 55.8 10 2.6 0 5.73-.02 9.2-.1l.15 3.2c-18.76 3.66-71.63 17.05-106.73 56.6-1.97 2.2-2.45 5.37-1.24 8.07 1.23 2.7 3.9 4.43 6.87 4.43H326.9c2.94 0 5.63-1.74 6.84-4.43 1.2-2.7.73-5.86-1.23-8.07-12.1-13.66-27.58-25.5-45.96-35.18-3.67-1.94-8.22-.53-10.15 3.14-1.94 3.67-.54 8.22 3.14 10.15 10.8 5.7 20.48 12.2 28.92 19.37H93.7c38.63-32.82 90.9-40.25 91.47-40.33 3.86-.52 6.68-3.9 6.5-7.78l-.43-9.9c.14 0 .26-.02.4-.03 1.3-.1 2.6-.2 3.94-.3.17-.02.33-.04.5-.06 1.35-.1 2.7-.24 4.1-.37 1.8-.2 3.58-.4 5.33-.6.07 0 .14 0 .2-.03 1.8-.2 3.56-.45 5.3-.7l-.53 12c-.17 3.88 2.66 7.25 6.5 7.77.16.02 15.5 2.15 35.5 9.2 3.9 1.4 8.2-.66 9.58-4.57 1.38-3.92-.67-8.2-4.6-9.6-13.45-4.75-24.85-7.4-31.68-8.75l.4-8.77c20.83-4.6 36.6-11.9 47.03-21.88 10.3-9.82 15.73-22.26 15.73-35.95 0-26.4-21.6-38.56-34.46-43.45-6.5-2.48-13.94-4.5-23.56-6.42l2.2-49.47c30.74-9.2 63.38-20.24 90.94-37.57 35.5-22.32 56.18-51.75 61.54-87.48 10.5-14.28 15.15-24.63 15.44-25.28 1.02-2.32.8-5-.6-7.13zm-151.3 227.42c16.44 6.25 24.77 16.14 24.77 29.4 0 9.5-3.83 18.16-11.08 25.1-9.27 8.85-24.4 15.25-45.07 19.12-.07 0-.14 0-.2.02-4.44.83-9.07 1.54-13.84 2.12-1.65.2-3.32.4-5.04.57-1.13.1-2.28.2-3.44.32-.2.02-.42.04-.63.05-1.14.1-2.26.2-3.4.27-.2 0-.4.02-.58.04-1.15.08-2.3.16-3.48.23-.14 0-.27.02-.4.03-1.1.06-2.22.12-3.32.18-6.45.32-12.13.4-16.46.4-9.04 0-20.3 0-29.54-1.02-10.38-1.16-13.87-3.14-14.9-3.95.93-.84 3.8-2.83 11.9-4.8 7.1-1.7 14.86-2.6 19.5-3.1l1.78-.22c3.6-.43 7.8-.87 12.23-1.34 5-.52 9.9-1.05 14.66-1.6.1-.02.2-.02.32-.03 6.6-.76 15.14-1.83 23.88-3.32 19.97-3.38 35.86-8.1 44.35-16.2 4.2-4 5.57-9.23 4.12-15.52-1.9-8.2-11.5-12.28-25.76-15.27l.75-16.75c7.66 1.6 13.67 3.3 18.88 5.27zm-64.44-56.44c5.9-1.73 11.98-3.3 17.52-4.75 3.78-.98 7.4-1.9 10.62-2.82.76-.2 1.5-.4 2.22-.6.46-.15.94-.3 1.4-.42.47-.14.93-.27 1.4-.4l-4.74 107.4c-.53.1-1.07.22-1.6.33-.18.05-.37.1-.55.12-7 1.4-14.5 2.52-21.77 3.47zm43.64 94.38l.5-11.22c8.2 1.9 11.04 3.5 11.95 4.2.02.18.03.3.02.4 0 .03-.03.05-.05.06-2.65 2.54-7 4.7-12.43 6.56zm87.7-158.17c-27.4 17.22-60.98 28.13-92.2 37.35-.04.02-.1.02-.14.04-4.33 1.27-8.63 2.53-12.84 3.76-3.55 1.03-7.86 2.14-12.42 3.33-26.6 6.9-56.76 14.7-56.76 32.64 0 16.65 18.6 23.88 29.75 27.03l.8 17.93c-9.47-2.04-17.02-4.28-23.33-6.9-19.06-7.93-28.72-20.4-28.72-37.1 0-17.93 16.15-27.74 28.3-33.56 8.3-4 18.32-7.6 29.27-11.1.02 0 .04 0 .05-.02 6.84-2.18 14-4.32 21.1-6.4.2-.06.4-.1.57-.17 2.23-.65 4.46-1.3 6.66-1.94 18.86-5.48 40.22-11.7 60.28-19.46 42.68-11.63 73.44-32.28 94.96-52.77-9.2 18.3-24.35 34.13-45.32 47.32zM170.72 314.8c-9-3.23-14-7.08-14-10.98 0-.03.9-3.4 13.15-8.34zm0 0"/></svg>