<svg xmlns="http://www.w3.org/2000/svg" viewBox="0 0 512 512"><path d="M258.77 170.67H14.3A14.3 14.3 0 000 184.96v56.75C0 249.59 6.4 256 14.3 256h244.47c7.89 0 14.3-6.4 14.3-14.3v-56.74c0-7.89-6.41-14.3-14.3-14.3zM256 238.93H17.07v-51.2H256v51.2z"/><path d="M227.05 136.53H46.02a20.45 20.45 0 00-20.42 20.43v22.24a8.53 8.53 0 008.53 8.53h204.8a8.53 8.53 0 008.54-8.53v-22.24a20.44 20.44 0 00-20.42-20.43zm3.35 34.14H42.67v-13.7c0-1.86 1.5-3.37 3.35-3.37h181.03a3.36 3.36 0 013.35 3.36v13.7zM247.47 238.93H25.6a8.53 8.53 0 00-8.53 8.54v244.1A20.45 20.45 0 0037.49 512h198.09A20.45 20.45 0 00256 491.57v-244.1a8.53 8.53 0 00-8.53-8.54zm-8.54 252.64c0 1.85-1.5 3.36-3.35 3.36H37.48a3.36 3.36 0 01-3.35-3.36V256h204.8v235.57z"/><path d="M65.86 273.07H25.6a8.53 8.53 0 00-8.53 8.53v187.73a8.53 8.53 0 008.53 8.54h40.26c15.45 0 28-12.57 28-28.01V301.07c0-15.43-12.55-28-28-28zM76.8 449.86c0 6.03-4.9 10.94-10.94 10.94H34.13V290.13h31.73c6.03 0 10.94 4.91 10.94 10.94v148.79zM247.47 273.07h-100c-15.44 0-28 12.57-28 28v148.79c0 15.44 12.56 28 28 28h100a8.53 8.53 0 008.53-8.53V281.6a8.53 8.53 0 00-8.53-8.53zm-8.54 187.73h-91.46c-6.03 0-10.94-4.9-10.94-10.94V301.07c0-6.03 4.91-10.94 10.94-10.94h91.46V460.8z"/><path d="M247.47 315.73h-85.34a8.53 8.53 0 00-8.53 8.54v34.13a8.53 8.53 0 008.53 8.53h85.34a8.53 8.53 0 008.53-8.53v-34.13a8.53 8.53 0 00-8.53-8.54zm-8.54 34.14h-68.26V332.8h68.26v17.07zM247.47 384h-85.34a8.53 8.53 0 100 17.07h85.34a8.53 8.53 0 100-17.07zM247.47 418.13h-85.34a8.53 8.53 0 100 17.07h85.34a8.53 8.53 0 100-17.07zM405.08 25.6h-21.84a20.26 20.26 0 01-16.23-8.27A42.67 42.67 0 00332.8 0a42.67 42.67 0 00-34.21 17.33 20.26 20.26 0 01-16.23 8.27h-21.84a30.16 30.16 0 00-30.12 30.12v46.68a8.53 8.53 0 008.53 8.53h187.74a8.53 8.53 0 008.53-8.53V55.72c0-16.6-13.5-30.12-30.12-30.12zm13.05 68.27H247.47V55.72c0-7.2 5.86-13.05 13.05-13.05h21.84a37.4 37.4 0 0029.98-15.22 25.17 25.17 0 0120.46-10.38 25.2 25.2 0 0120.47 10.38 37.37 37.37 0 0029.97 15.22h21.84c7.2 0 13.05 5.86 13.05 13.05v38.15z"/><path d="M332.8 34.13c-14.11 0-25.6 11.49-25.6 25.6s11.49 25.6 25.6 25.6c14.11 0 25.6-11.48 25.6-25.6s-11.49-25.6-25.6-25.6zm0 34.14a8.54 8.54 0 11.02-17.09 8.54 8.54 0 01-.02 17.09zM331.72 128c-20.83 0-35.61 6.14-47.94 19.9a8.53 8.53 0 1012.72 11.4c8.92-9.98 19.45-14.23 35.22-14.23 28.23 0 51.2 22.96 51.2 51.2s-22.97 51.2-51.2 51.2c-15.77 0-26.3-4.26-35.23-14.23a8.53 8.53 0 10-12.72 11.38c12.34 13.77 27.12 19.91 47.94 19.91a68.35 68.35 0 0068.27-68.26A68.34 68.34 0 00331.72 128z"/><path d="M332.8 162.13a8.53 8.53 0 00-8.53 8.54v51.2a8.53 8.53 0 1017.06 0v-51.2a8.53 8.53 0 00-8.53-8.54z"/><path d="M358.4 187.73h-51.2a8.53 8.53 0 100 17.07h51.2a8.53 8.53 0 100-17.07zM332.8 290.13h-51.2a8.53 8.53 0 100 17.07h51.2a8.53 8.53 0 100-17.07zM392.53 332.8H281.6a8.53 8.53 0 100 17.07h110.93a8.53 8.53 0 100-17.07zM426.67 375.47H281.6a8.53 8.53 0 100 17.06h145.07a8.53 8.53 0 100-17.06z"/><path d="M469.33 76.8h-42.66a8.53 8.53 0 00-8.54 8.53v8.54H247.47v-8.54a8.53 8.53 0 00-8.54-8.53h-42.66a8.53 8.53 0 00-8.54 8.53v59.74a8.53 8.53 0 008.54 8.53h30.78a3.36 3.36 0 013.35 3.36v22.24a8.53 8.53 0 008.53 8.53H256v51.2h-8.53a8.53 8.53 0 00-8.54 8.54v196.26a8.53 8.53 0 008.54 8.54h221.86a8.53 8.53 0 008.54-8.54V85.33a8.53 8.53 0 00-8.54-8.53zm-8.53 358.4H256V256h2.77c7.89 0 14.3-6.4 14.3-14.3v-56.74c0-7.88-6.41-14.3-14.3-14.3h-11.3v-13.7a20.45 20.45 0 00-20.42-20.43H204.8V93.87h25.6v8.53a8.53 8.53 0 008.53 8.53h187.74a8.53 8.53 0 008.53-8.53v-8.53h25.6V435.2z"/><path d="M490.54 42.67h-63.87a8.53 8.53 0 00-8.54 8.53v42.67H247.47V51.2a8.53 8.53 0 00-8.54-8.53h-63.87a21.48 21.48 0 00-21.46 21.46v80.94a8.53 8.53 0 008.53 8.53h64.92a3.36 3.36 0 013.35 3.36v22.24a8.53 8.53 0 008.53 8.53H256v51.2h-8.53a8.53 8.53 0 00-8.54 8.54v230.4a8.53 8.53 0 008.54 8.53h243.07A21.48 21.48 0 00512 464.95V64.13a21.48 21.48 0 00-21.46-21.46zm4.4 422.27a4.4 4.4 0 01-4.4 4.4H256V256h2.77c7.89 0 14.3-6.4 14.3-14.3v-56.74c0-7.88-6.41-14.3-14.3-14.3h-11.3v-13.7a20.45 20.45 0 00-20.42-20.43h-56.38v-72.4a4.4 4.4 0 014.4-4.4h55.33v42.67a8.53 8.53 0 008.53 8.53h187.74a8.53 8.53 0 008.53-8.53V59.73h55.34a4.4 4.4 0 014.4 4.4v400.8z"/></svg>