<?xml version="1.0" encoding="UTF-8"?>
<svg width="261px" height="252px" viewBox="0 0 261 252" version="1.1" xmlns="http://www.w3.org/2000/svg" xmlns:xlink="http://www.w3.org/1999/xlink">
    <!-- Generator: Sketch 52.6 (67491) - http://www.bohemiancoding.com/sketch -->
    <title>icon</title>
    <desc>Created with Sketch.</desc>
    <g id="Page-1" stroke="none" stroke-width="1" fill="none" fill-rule="evenodd">
        <g id="icon">
            <path d="M15.4138534,101.890999 C7.13877386,145.890248 14.9630709,187.357166 49.7055256,219.011303 C76.5914846,243.669875 113.233666,252.944536 149.360667,251.773333 C179.788489,250.665439 211.021279,240.599423 231.725078,218.568145 C244.39555,204.482101 253.010275,187.325519 256.679111,168.871151 C260.017449,153.333979 260.940233,137.389017 259.416005,121.579872 C257.645074,102.58739 249.756379,87.8049085 238.003835,73.0857352 C227.452512,59.8564854 214.809264,48.3782627 200.556685,39.0891931 C180.046079,25.6045311 155.800418,14.3673128 131.329365,9.93573373 C125.188221,8.83792725 118.960305,8.27651465 112.718486,8.25806452 C59.9769279,8.28971865 25.0734794,50.484682 15.4138534,101.890999 Z" id="Path" fill="#FFD51D"></path>
            <path d="M250.179669,87.1767022 C245.233397,71.7246603 237.984749,57.1061111 228.678045,43.8137822 C217.607268,27.8245049 203.080873,18.7745739 185.770785,11.6113777 C170.037846,5.25042458 153.373706,1.49175109 136.432236,0.48284068 C111.986937,-1.11608705 85.3018854,1.09043322 62.1364448,9.59672874 C2.04708364,31.8218242 -11.1674564,93.796263 8.44637662,150.046541 C23.4847151,193.281546 51.1936538,226.091543 97.044588,236.644466 C132.848632,244.830976 168.972641,234.597839 199.433276,215.154878 C225.030448,198.781858 246.948026,173.998478 253.827266,143.970615 C257.642479,125.076614 256.417626,105.511984 250.275658,87.2406593" id="Path" fill="#74D9D7"></path>
            <path d="M212.977809,41.0077931 C200.375571,28.0817866 184.543999,18.7713874 167.129441,14.0447977 C152.501938,9.84905984 137.320011,7.91448115 122.108891,8.30799014 C103.865061,8.72231513 89.1872152,15.3196438 74.3501739,25.359057 C60.974133,34.4796588 49.1490546,45.6924943 39.327115,58.5687984 C25.2223739,77.1496806 12.7414293,99.3320031 7.16957901,122.151749 C-7.60378404,181.368351 33.4368732,224.330665 87.4360623,238.353972 C128.82695,249.126422 169.071629,244.505105 201.611234,213.653829 C227.08255,189.62298 238.289929,155.64833 239.404299,121.227485 C240.359473,92.3203494 232.781757,62.0108829 213.073327,40.9121796" id="Path" fill="#F459A5"></path>
            <path d="M254.651868,119.778878 C251.435784,103.236715 243.685019,87.9057321 235.741289,73.1803388 C224.38851,51.8572044 212.167387,29.9603534 193.771381,13.8644149 C174.732159,-2.74149401 148.231619,-2.29526997 125.043647,4.14310544 C104.074773,9.97589109 77.767199,17.2748414 61.3008443,31.617757 C45.7993151,45.1319707 37.1158858,67.0606949 32.8706538,86.7582989 C24.7982807,124.304864 14.6354524,182.122751 47.3751967,210.904201 C66.2214542,227.446364 92.4003853,234.426583 116.939113,235.287157 C142.925079,236.211479 175.889949,227.637603 203.19451,211.446045 C237.027723,191.365963 262.209668,159.62031 254.651868,119.747005" id="Path" fill="#5F6CFF"></path>
            <path d="M244.964273,93.5340425 C240.30843,77.7294694 231.462993,63.4351012 219.339605,52.1241666 C209.241264,42.4614461 197.705205,34.3768008 185.130673,28.1500279 C170.108212,20.664032 155.309966,19.6532646 138.910179,21.3589346 C124.130066,22.9880628 109.712826,26.955663 96.2130755,33.1091053 C75.9275868,41.8126283 57.6348796,54.4688931 42.4333036,70.3179793 C4.89316499,111.601509 19.7234416,163.813962 57.6159194,198.274812 C86.7639792,224.775869 121.389312,238.294882 161.171609,227.492306 C192.209488,219.153475 216.008398,196.600728 231.7996,169.436355 C245.028335,146.59933 251.946995,118.897986 244.996304,93.6288019" id="Path" fill="#000000"></path>
            <path d="M123.80471,129.819574 C123.72657,129.819574 123.663225,129.884211 123.663225,129.963945 L123.663225,156.903226 C123.663225,163.74443 118.228225,169.290323 111.523814,169.290323 L102.978121,169.290323 C96.2737092,169.290323 90.8387097,163.74443 90.8387097,156.903226 L90.8387097,82.5806452 C90.8387097,75.7394405 96.2737092,70.1935484 102.978121,70.1935484 L111.382329,70.1935484 C118.08674,70.1935484 123.52174,75.7394405 123.52174,82.5806452 L123.52174,106.580615 C123.52174,106.660349 123.585085,106.724986 123.663225,106.724986 C123.752269,106.724986 123.836092,106.682114 123.889378,106.609318 L146.904172,75.1679295 C149.195763,72.0372992 152.800648,70.1935484 156.630035,70.1935484 L170.353268,70.1935484 C175.424453,70.1935484 179.53546,74.3884342 179.53546,79.563088 C179.53546,81.7804341 178.7648,83.9259238 177.360515,85.618057 L158.778362,108.009152 C155.120073,112.417312 154.933294,118.820422 158.328162,123.442804 L179.612456,152.423058 C183.034882,157.082963 182.107242,163.691594 177.540514,167.18385 C175.752433,168.551227 173.57815,169.290323 171.343663,169.290323 L157.052592,169.290323 C153.066191,169.290323 149.333844,167.293199 147.066972,163.947166 L124.026651,129.938331 C123.976267,129.863962 123.893312,129.819574 123.80471,129.819574 Z" id="K" fill="#FFFFFF"></path>
        </g>
    </g>
</svg>